<?xml version="1.0" standalone="no"?>
<!DOCTYPE svg PUBLIC "-//W3C//DTD SVG 20010904//EN"
 "http://www.w3.org/TR/2001/REC-SVG-20010904/DTD/svg10.dtd">
<svg version="1.0" xmlns="http://www.w3.org/2000/svg"
 width="1200.000000pt" height="1200.000000pt" viewBox="0 0 1200.000000 1200.000000"
 preserveAspectRatio="xMidYMid meet">
<metadata>
Created by potrace 1.14, written by Peter Selinger 2001-2017
</metadata>
<g transform="translate(0.000000,1200.000000) scale(0.100000,-0.100000)"
fill="#000000" stroke="none">
<path d="M5830 10110 c-540 -45 -995 -164 -1410 -371 -724 -361 -1190 -937
-1328 -1644 -11 -55 -22 -119 -25 -142 l-5 -43 718 0 718 0 17 53 c10 28 35
88 56 132 210 442 657 719 1284 796 133 16 478 13 620 -6 698 -91 1108 -443
1237 -1063 20 -100 22 -138 26 -577 l3 -471 -1103 -58 c-607 -31 -1166 -64
-1243 -72 -1114 -114 -1896 -500 -2307 -1139 -128 -198 -237 -482 -284 -734
-25 -138 -25 -148 -22 -513 4 -362 5 -377 32 -508 58 -283 190 -608 331 -820
387 -579 1016 -933 1805 -1016 193 -20 620 -15 808 10 621 82 1124 310 1491
674 151 151 296 350 383 527 l32 65 68 0 68 0 0 -585 0 -585 700 0 700 0 0
2793 c0 1845 -4 2839 -10 2928 -105 1355 -957 2173 -2445 2349 -203 24 -726
35 -915 20z m1910 -4867 c0 -374 -4 -512 -15 -591 -102 -720 -635 -1277 -1400
-1463 -178 -43 -300 -59 -495 -66 -444 -15 -822 77 -1110 270 -98 66 -245 213
-305 305 -140 217 -193 431 -182 729 12 323 106 554 311 758 252 252 661 403
1204 446 173 13 1777 96 1905 98 l87 1 0 -487z"/>
</g>
</svg>
